<svg id="图层_1" data-name="图层 1" xmlns="http://www.w3.org/2000/svg" viewBox="0 0 841.89 595.28"><defs><style>.cls-1{stroke:#000;stroke-miterlimit:10;stroke-width:2.78px;}.cls-2{fill-rule:evenodd;}</style></defs><path class="cls-1" d="M340.17,132.88c.67.4,1.07.8,1.07,1.2s-.4.54-1.07.94c-2.81,1.33-3.34,1.6-4.27,3.2-4,6.34-7.41,11.77-10.45,16.41a.17.17,0,0,0,.07.25c3.18,1.78,3.56,1.91,3.56,2.31s-.13.53-2.27,1.87V185.9c0,6.54.14,12,.54,16.83,0,2.13-.14,2.53-3.07,3.6a8.32,8.32,0,0,1-2.41.67c-.8,0-.93-.53-.93-2.14v-1.2q.39-9.61.4-18V161.19c-9.08,13.63-13.76,19.23-19.9,25.24l-1.2-1.2c11.08-14.82,23.1-36.32,32.32-57.56Zm-18.56,79.6c.13,1.6.13,3.07.13,4.4,0,17.5-7.21,23.11-12,23.11-2.4,0-4.41-1.61-4.41-3.61,0-1.47,1.07-2.8,2.94-4,6.55-3.73,10.15-8.14,11.49-19.76Zm66.1,3.87c0,11.75,1.07,14.42,4.54,16.56.67.4.94.8.94,1.33a3.54,3.54,0,0,1-.27.94c-2.4,5.21-4.94,6.28-8.95,6.54-8,.4-18.43.67-28.18.67-19.23,0-19.89,0-19.89-6.41V220c0-4.27-.14-7.34-.41-10.95l9.89,4.68c.53.27.8.53.8.8a1.36,1.36,0,0,1-.67.93L341.77,218V233c0,4,2.14,4,14.42,4,8.42,0,18-.27,22.31-.67,5.34-.53,6-1.07,7.21-20Zm-38.59-66.51c.66.4,1.06.67,1.06,1.07s-.26.53-.8.8l-2.8,1.74v19.76c0,7.75.13,12.16.27,15.49,0,1.07-.27,1.47-2.94,2.41a10.47,10.47,0,0,1-2.27.53c-.8,0-1.07-.67-1.07-2v-.94c.27-5.07.4-10.55.4-15.35v-15.9c0-3.6-.27-9.48-.53-12.55Zm78.46,51.49c-5.34-.13-16.76.2-18.9,3.4a1.35,1.35,0,0,1-.94.53c-.8,0-17.49-8.54-27-18.56-7.88,7.35-19.77,14.56-38.33,19.77l-.94-2c17.23-6.67,27.38-13.08,35.79-21.9-6.4-8.55-10.41-20-12-28.71a165.71,165.71,0,0,1-13.49,19.36l-1.61-.93a304.92,304.92,0,0,0,21.11-45.54l8.14,5.34c.67.4.94.8.94,1.07s-.4.67-1.2.93c-3.21,1.21-3.74,1.61-4.81,3.61-2,3.61-3.88,7.08-5.61,10.15h35.92l5.34-7,7.48,7.75c.67.67.94,1.07.94,1.47s-.54.53-1.47.53H400.67c-3.88,12.56-8.55,23.64-16,32.06,9.88,9.48,29.24,16.56,43.13,16.29Zm-72.32,3.8c7.08,3.21,16,7.21,16,13.62,0,2.81-2.41,5.75-4.14,5.75a3.39,3.39,0,0,1-3.08-2.54c-1.87-6.68-3.33-10.42-9.75-15.36Zm12-54.49c2.54,10.15,7.08,20.44,13.49,28.05,6-7.48,9.61-15.36,12.55-28.05Zm26.31,58.5c14.29,7.34,20,13.75,21.1,18.69a5.16,5.16,0,0,1,.13,1.47c0,2.94-1.87,6.55-3.87,6.55s-3.34-.94-4.14-4.41c-1.2-6.14-4.14-12-14.16-21.1Z"/><path class="cls-1" d="M507.36,155.32c.94.93,1.34,1.47,1.34,1.87s-.54.8-1.87,1.33c-3.88,1.47-4.68,2.14-5.08,3.47-1.33,4.15-2.67,8-4.14,11.89,5.61,25,18.56,57.16,49,63.57l-.13,1.87a39.84,39.84,0,0,0-5.34-.4c-5.34,0-8,1.6-9.75,3.87-.4.4-.67.67-1.07.67s-.8-.27-1.47-.8c-19.5-17.36-29.38-38.86-32.58-65.31-13.09,31.79-51.78,59.63-90.51,76.59l-.8-1.87c34.32-18.29,81.16-50.14,90.1-95.15H464.22c-9.21,16.69-24.18,34.58-35.8,44.2l-1.6-1.21c19.76-21.76,36.87-54.07,43-75.44L480,131c.8.54,1.34.94,1.34,1.34s-.67.67-1.87.93a8.87,8.87,0,0,0-4.94,3.88c-3.07,6.14-5.88,11.75-8.68,17h28.31l5.34-6.55Z"/><path class="cls-1" d="M374,265.28a2.43,2.43,0,0,1,.8,1.33c0,.54-.54.8-1.6.8H340a214.76,214.76,0,0,1-8.82,23h23.51l4.54-6,8.94,7.48c.54.54.81.8.81,1.2s-.41.67-1.07,1.07l-4.54,2.54c-9.49,29.78-20.7,55.15-59.43,74.65l-.8-1.87C339.1,347,349.12,324,356.59,293.32h-26.7c-1.74,3.74-3.61,7.35-5.48,10.82,10.68,8.14,13.62,12.95,14.42,15.49a7.69,7.69,0,0,1,.4,2.54c0,3.87-2.4,7.48-4.94,7.48-1.6,0-2.53-1.07-2.53-4.95s-2.81-12-8.69-18a112.38,112.38,0,0,1-17.49,22.83l-1.74-1.2c13.49-17,24.44-41.93,29-60.9H284.26a28.21,28.21,0,0,0-8.55,1.2l-3.6-4.67c3.07.27,6.41.53,9.34.53H360.6l5.21-7.07Zm15.62,9.34c.94.4,1.34.81,1.34,1.21s-.4.8-1.07,1.33l-4.14,2.94V318c0,9.21.13,13.75.53,19.23v.53c0,1.74-.67,2.27-3.87,3.87a6.12,6.12,0,0,1-2.4.81c-1.07,0-1.34-.94-1.34-2.67v-1.47c.54-6.95.8-13.63.8-20.44V287c0-4.94-.26-13.08-.4-17.49Zm26.31-15.35c.67.4,1.07.8,1.07,1.2s-.27.8-.94,1.2l-4.54,2.94v92.68c0,7.88-1.6,11.22-12,15.22a3.91,3.91,0,0,1-1.06.27c-.54,0-.94-.4-1.07-1.2-1.2-5.21-2.81-6.68-17.9-11.22v-2.14c9.62,2,15.76,3.08,19.63,3.08,5.08,0,6.15-1.87,6.15-5.35V272.89c0-5.48-.14-14.56-.4-19.5Z"/><path class="cls-1" d="M597.73,339.26c.81.8,1.21,1.34,1.21,1.6s-.54.54-1.47.54H490v6c0,8.14.13,111.64.53,117.65v.67c0,1.87-.66,2.41-3.2,3.87a6.59,6.59,0,0,1-2.94,1.21c-.8,0-1.07-.8-1.07-2.81v-1.87c.27-6.41.4-111.38.4-119V341.4H434.84c-2.8,0-22.34.13-24.61,1.07l-3.74-4.94c3.34.26,22.34.93,25.42.93h51.81V316.83H454.34l-3.87,3.73a1.89,1.89,0,0,1-1.07.67,1.73,1.73,0,0,1-.93-.4l-7.35-6.68c4.67-1.2,6.94-3.07,10.15-8.94,3.87-7.08,8.68-16.7,13.22-26.45h-24a27.42,27.42,0,0,0-8.94,1.47l-3.74-4.94c3.33.27,6.67.54,9.74.54h28.32c4-8.82,7.88-17.63,10.55-24.44l8.41,5.74c.67.4.94.8.94,1.07s-.41.67-1.07.93l-4.28,1.34-7.88,15.36h49.68l5.48-7.08,7.88,8.14c.67.67.93,1.07.93,1.34s-.4.53-1.47.53H471l-17.77,35.13h30.45v-7.08c0-5.48-.27-14.56-.53-19.5L493.34,292c1.07.4,1.47.66,1.47,1.06s-.4.8-1.34,1.34L490,296.53v17.36h24.17l5.21-6.55,8.15,7.75c.66.67,1.06,1.07,1.06,1.33s-.4.41-1.2.41H490v21.63h92.64l6.41-7.88Z"/><path class="cls-2" d="M573,321.88h-8.36L566,318h7v3.88Zm2.31-3.88h2.92v3.88h-2.92V318Zm1.25,12a3.57,3.57,0,1,1-2.53-1.05,3.56,3.56,0,0,1,2.53,1.05Zm-19.26,3.26a1.67,1.67,0,0,1,0,2.36h0a1.67,1.67,0,1,1-2.36-2.36h0a1.69,1.69,0,0,1,2.36,0Zm-7,0a1.67,1.67,0,0,1,0,2.36h0a1.67,1.67,0,1,1-2.36-2.36h0a1.69,1.69,0,0,1,2.36,0Zm-2.42-11.39h-4a13.14,13.14,0,0,0-.73,10.09h0l-7,3.94v2h7.92v-4.22h1.37a3.94,3.94,0,0,0-.08.77,3.8,3.8,0,0,0,6.5,2.69h0a3.64,3.64,0,0,0,.8-1.17,3.8,3.8,0,0,0,6.18,1.17h0a3.78,3.78,0,0,0,1.12-2.69,4.17,4.17,0,0,0-.07-.71l8.58,0a5.72,5.72,0,0,0,9.63,2.81,5.59,5.59,0,0,0,1.53-2.76h3v-2.21H581.1V316.57h1.54v-2.22H562.41v2.22h1l-1.8,5.31h-2.87V321a2,2,0,1,0-4-.05v.92h-4.34"/></svg>